<?xml version="1.0" encoding="UTF-8"?>
<svg id="Ebene_2" data-name="Ebene 2" xmlns="http://www.w3.org/2000/svg" viewBox="0 0 192.79 41.61">
  <defs>
    <style>
      .cls-1 {
        fill: #009cc3;
      }

      .cls-2 {
        fill: #494642;
      }
    </style>
  </defs>
  <g id="Ebene_1-2" data-name="Ebene 1">
    <g id="ipso-logo-lang-rgb">
      <path class="cls-1" d="m.69,31.19h4.86V10.94H.69v20.25h0ZM0,4.06c0,1.6,1.3,3.04,3.08,3.04s3.16-1.31,3.16-3.04-1.38-3.04-3.16-3.04S0,2.46,0,4.06"/>
      <path class="cls-1" d="m91.62,1.03h4.86v20.25h-4.86V1.03h0Zm-.69,27.12c0-1.6,1.3-3.04,3.08-3.04s3.16,1.31,3.16,3.04-1.38,3.04-3.16,3.04-3.08-1.43-3.08-3.04"/>
      <path class="cls-1" d="m62.81,21.06c0,6.37,4.7,10.63,10.58,10.63s10.58-4.26,10.58-10.63-4.7-10.63-10.58-10.63-10.58,4.26-10.58,10.63m4.86,0c0-3.16,2.15-6.07,5.71-6.07s5.72,2.91,5.72,6.07-2.15,6.07-5.72,6.07-5.71-2.91-5.71-6.07"/>
      <path class="cls-1" d="m14.05,40.8h4.86v-12.19h.12c1.01,1.31,2.96,3.08,6.61,3.08,5.55,0,9.4-4.64,9.4-10.63s-3.61-10.63-9.61-10.63c-2.72,0-5.27,1.1-6.69,3.54h-.08v-3.04h-4.62v29.86h0Zm16.13-19.74c0,3.16-2.15,6.07-5.71,6.07s-5.71-2.91-5.71-6.07,2.15-6.07,5.71-6.07,5.71,2.91,5.71,6.07"/>
      <path class="cls-1" d="m56.47,13.51c-1.58-2.24-4.34-3.08-6.93-3.08-3.93,0-7.82,2.02-7.82,6.54,0,7.72,10.5,4.43,10.5,8.61,0,1.6-1.82,2.32-3.24,2.32-2.07,0-3.36-1.05-4.62-2.49l-3.24,3.16c1.99,2.32,4.58,3.12,7.58,3.12,3.97,0,8.39-1.69,8.39-6.5,0-7.89-10.5-4.93-10.5-8.56,0-1.52,1.54-2.15,2.84-2.15,1.66,0,2.88.72,3.81,2.07l3.24-3.04h0Z"/>
      <path class="cls-2" d="m115.8,39.59c.77,1.38,2.3,2.02,4,2.02,1.89,0,3.59-1.03,3.59-3.08,0-4.02-5.9-1.94-5.9-4.63,0-1.03,1.18-1.59,2.11-1.59,1.16,0,1.85.49,2.34,1.4l1.16-.69c-.65-1.27-1.89-1.87-3.51-1.87s-3.4.93-3.4,2.86c0,3.79,5.9,1.87,5.9,4.6,0,1.14-1.16,1.83-2.28,1.83s-2.34-.58-2.88-1.64l-1.14.77h0Zm17.49-.9c-.64,1.08-2.02,1.76-3.33,1.76-3.01,0-3.76-2.67-3.76-3.74h8.35v-.9c0-2.3-1.61-4.65-4.67-4.65s-4.97,2.24-4.97,5.21,2,5.25,5.03,5.25c1.76,0,3.29-.62,4.3-2.13l-.95-.8h0Zm-7.1-3.14c0-.52.8-3.23,3.62-3.23,1.91,0,3.44,1.46,3.44,3.23h-7.06Zm10.8,5.81h1.29v-9.94h-1.29v9.94h0Zm-.32-13.88c0,.54.43.97.97.97s.97-.43.97-.97-.43-.97-.97-.97-.97.43-.97.97h0Zm9.92,3.94h-2.84v-2.86h-1.29v2.86h-2.15v1.16h2.15v6.48c0,1.42.71,2.56,2.56,2.56.49,0,1.21-.17,1.68-.34l-.11-1.16c-.45.19-.97.34-1.46.34-.86,0-1.38-.52-1.38-1.4v-6.48h2.84v-1.16h0Zm10.93,9.94h1.29v-15.23h-1.1l-3.77,3.08.8.99,2.75-2.26h.02v13.43h0Z"/>
      <path class="cls-2" d="m189.98,26.12h-1.64l-4.13,6.86c-.6,1.01-1.4,2.3-1.4,3.89,0,2.75,2.11,4.73,4.99,4.73s4.99-1.98,4.99-4.73-1.96-4.69-4.67-4.69c-.73,0-1.74.22-2.26.65h-.04l4.15-6.71h0Zm-2.17,7.19c1.98,0,3.57,1.59,3.57,3.57,0,2.11-1.46,3.57-3.57,3.57s-3.57-1.46-3.57-3.57c0-1.98,1.59-3.57,3.57-3.57h0Z"/>
      <polygon class="cls-2" points="182.39 26.12 173.74 26.12 173.74 27.28 181.06 27.28 174.88 41.36 176.33 41.36 182.39 27.28 182.39 26.12 182.39 26.12"/>
      <path class="cls-2" d="m163.11,29.82c0,1.42.95,2.95,2.43,3.36v.02c-1.94.41-2.97,2.09-2.97,3.92,0,2.73,2.02,4.5,4.71,4.5s4.71-1.76,4.71-4.5c0-1.83-1.03-3.51-2.97-3.92v-.02c1.49-.41,2.43-1.94,2.43-3.36,0-2.37-1.81-3.96-4.17-3.96s-4.18,1.59-4.18,3.96h0Zm1.42,0c0-1.68,1.18-2.8,2.76-2.8s2.75,1.12,2.75,2.8c0,1.53-1.12,2.8-2.75,2.8s-2.76-1.27-2.76-2.8h0Zm-.54,7.29c0-2,1.46-3.34,3.29-3.34s3.29,1.33,3.29,3.34c0,1.83-1.29,3.34-3.29,3.34s-3.29-1.51-3.29-3.34h0Z"/>
      <path class="cls-2" d="m116.75,16.27h4.86c2.07,0,5.1-.75,5.1-4.26,0-2.13-1.4-3.59-3.4-3.74v-.04c1.81-.37,2.73-1.61,2.73-3.16,0-3.44-2.58-4.02-4.91-4.02h-4.39v15.23h0Zm1.42-13.94h3.14c1.81,0,3.31.6,3.31,2.73,0,.95-.56,2.56-3.51,2.56h-2.95V2.32h0Zm0,6.58h3.46c1.81,0,3.66.88,3.66,3.14,0,1.08-.54,2.93-3.87,2.93h-3.25v-6.07h0Z"/>
      <path class="cls-2" d="m129.79,16.27h1.29V6.33h-1.29v9.94h0Zm-.32-13.88c0,.54.43.97.97.97s.97-.43.97-.97-.43-.97-.97-.97-.97.43-.97.97h0Z"/>
      <path class="cls-2" d="m147.98,16.27h1.29V0h-1.29v8.07h-.04c-.8-1.38-2.5-2-3.98-2-3.05,0-5.23,2.19-5.23,5.23s2.17,5.23,5.23,5.23c1.49,0,3.18-.62,3.98-2h.04v1.74h0Zm.13-4.97c0,2.24-1.81,4.07-4.15,4.07s-3.94-1.83-3.94-4.07,1.51-4.07,3.94-4.07,4.15,1.83,4.15,4.07h0Z"/>
      <polygon class="cls-2" points="134.8 16.27 136.1 16.27 136.1 0 134.8 0 134.8 16.27 134.8 16.27"/>
      <path class="cls-2" d="m160.82,6.33h-1.29v4.97c0,2.73-1.53,4.07-3.44,4.07-2.04,0-2.5-1.57-2.5-3.18v-5.85h-1.29v5.92c0,2.17.69,4.28,3.79,4.28,1.61,0,2.88-.9,3.4-2h.06c.04.19.06,1.01.09,1.74h1.29c0-.52-.11-2.07-.11-2.8v-7.14h0Zm3.33,9.94h1.29v-4.97c0-2.73,1.53-4.07,3.44-4.07,2.04,0,2.5,1.57,2.5,3.18v5.85h1.29v-5.92c0-2.17-.69-4.28-3.79-4.28-1.61,0-2.88.9-3.4,2h-.06c-.04-.19-.07-1.01-.09-1.74h-1.29c0,.52.11,2.07.11,2.8v7.14h0Z"/>
      <path class="cls-2" d="m185.55,6.33h-1.29v1.68h-.04c-.75-1.18-2.07-1.94-3.76-1.94-2.93,0-5.32,2.3-5.32,5.1s2.39,5.1,5.32,5.1c1.7,0,3.01-.75,3.76-1.94h.04v1.38c0,1.12-.06,4.56-4,4.56-1.55,0-3.01-.6-3.92-1.87l-1.01.95c1.01,1.31,2.93,2.09,4.93,2.09s5.29-.86,5.29-5.81V6.33h0Zm-1.25,4.84c0,2.17-1.76,3.94-3.94,3.94s-3.94-1.76-3.94-3.94,1.76-3.94,3.94-3.94,3.94,1.76,3.94,3.94h0Z"/>
    </g>
  </g>
</svg>